<svg width="347" height="90" viewBox="0 0 347 90" fill="none" xmlns="http://www.w3.org/2000/svg">
<path fill-rule="evenodd" clip-rule="evenodd" d="M85.8781 40.6241C85.9024 41.3066 85.9101 41.9905 85.9012 42.6752L81.1491 45.9158C81.0936 44.135 81.0092 42.4023 80.8692 40.7115C80.4344 35.4626 79.4632 30.6174 77.1548 25.9903C74.6516 20.8121 70.9778 16.2874 66.424 12.7742C61.8702 9.261 56.5614 6.85561 50.9175 5.74833C45.2736 4.64104 39.4495 4.86223 33.9058 6.39442C28.3622 7.9266 23.2511 10.7277 18.9769 14.5762C14.7027 18.4247 11.3827 23.215 9.27943 28.5681C7.17617 33.9212 6.3474 39.6903 6.85868 45.4191C7.406 51.5516 9.01325 55.5349 11.9124 61.2491C12.5077 62.4225 13.1574 63.6688 13.8637 65.0218L7.92217 64.2274C7.44082 63.4465 6.98591 62.6514 6.55788 61.8435C3.93626 56.8949 2.32327 51.4646 1.82383 45.8684C1.24283 39.3585 2.18462 32.8027 4.57468 26.7196C6.96475 20.6365 10.7375 15.193 15.5946 10.8197C20.4516 6.44644 26.2596 3.26334 32.5592 1.52222C38.8588 -0.218895 45.4772 -0.470252 51.8907 0.78803C58.3042 2.04631 64.337 4.77971 69.5117 8.772C74.6865 12.7643 78.8613 17.9059 81.7058 23.7902C84.2524 29.058 85.6703 34.7916 85.8781 40.6241ZM40.2866 23.7271C39.4744 23.7271 38.816 24.3855 38.816 25.1976V33.7431H30.2705C29.4583 33.7431 28.7999 34.4016 28.7999 35.2137V42.2886C28.7999 43.1008 29.4583 43.7592 30.2705 43.7592H38.816V52.3047C38.816 53.1169 39.4744 53.7753 40.2866 53.7753H47.3615C48.1737 53.7753 48.8321 53.1169 48.8321 52.3047V43.7592H57.3776C58.1898 43.7592 58.8482 43.1008 58.8482 42.2886V35.2137C58.8482 34.4016 58.1898 33.7431 57.3776 33.7431H48.8321V25.1976C48.8321 24.3855 48.1737 23.7271 47.3615 23.7271H40.2866ZM67.8653 53.2341C77.401 50.5822 86.9666 47.922 91.0999 38.6783C92.0014 66.3227 75.0944 83.612 49.3036 87.0255C52.1481 79.4399 58.2166 70.3373 67.3193 62.5621C55.372 67.4927 48.1657 77.5436 43.804 88.5426C38.8811 61.2947 53.3386 57.274 67.8653 53.2341ZM18.9492 67.87C12.5744 67.4544 6.05295 67.0292 0.9552 62.9172C11.1716 82.048 27.7983 88.9591 41.0196 89.4599C41.0196 89.4599 36.4122 73.6133 19.7855 75.838C34.0083 73.9349 39.2167 79.5439 42.522 88.3581C40.3422 69.2649 29.8603 68.5814 18.9492 67.87Z" fill="#2482C6"/>
<path d="M130.334 35.2705C132.929 35.2705 134.893 35.8291 136.226 36.9462C137.595 38.0633 138.532 39.5588 139.037 41.4327C139.541 43.2705 139.794 45.3246 139.794 47.5948V61.4327C139.794 62.3696 139.487 63.1624 138.875 63.8111C138.262 64.4237 137.487 64.73 136.55 64.73C135.614 64.73 134.839 64.4237 134.226 63.8111C133.614 63.1624 133.307 62.3696 133.307 61.4327V47.5948C133.307 46.4057 133.163 45.3426 132.875 44.4057C132.586 43.4327 132.064 42.6579 131.307 42.0813C130.55 41.5048 129.469 41.2165 128.064 41.2165C126.695 41.2165 125.523 41.5048 124.55 42.0813C123.577 42.6579 122.839 43.4327 122.334 44.4057C121.866 45.3426 121.632 46.4057 121.632 47.5948V61.4327C121.632 62.3696 121.325 63.1624 120.713 63.8111C120.1 64.4237 119.325 64.73 118.388 64.73C117.451 64.73 116.677 64.4237 116.064 63.8111C115.451 63.1624 115.145 62.3696 115.145 61.4327V28.0273C115.145 27.0903 115.451 26.3156 116.064 25.7029C116.677 25.0543 117.451 24.73 118.388 24.73C119.325 24.73 120.1 25.0543 120.713 25.7029C121.325 26.3156 121.632 27.0903 121.632 28.0273V41.4327L120.821 41.2705C121.145 40.6579 121.595 40.0093 122.172 39.3246C122.749 38.6038 123.451 37.9372 124.28 37.3246C125.109 36.712 126.028 36.2255 127.037 35.8651C128.046 35.4687 129.145 35.2705 130.334 35.2705ZM160.439 65.2705C157.376 65.2705 154.709 64.6399 152.439 63.3786C150.205 62.0813 148.475 60.3336 147.25 58.1354C146.061 55.9372 145.466 53.4507 145.466 50.6759C145.466 47.4327 146.115 44.6759 147.412 42.4057C148.745 40.0993 150.475 38.3336 152.601 37.1084C154.727 35.8831 156.979 35.2705 159.358 35.2705C161.196 35.2705 162.925 35.6489 164.547 36.4056C166.205 37.1624 167.664 38.2075 168.925 39.5408C170.187 40.8381 171.178 42.3516 171.898 44.0813C172.655 45.8111 173.034 47.6489 173.034 49.5948C172.998 50.4597 172.655 51.1624 172.007 51.703C171.358 52.2435 170.601 52.5138 169.736 52.5138H149.088L147.466 47.1084H167.304L166.115 48.1894V46.73C166.043 45.6849 165.664 44.748 164.979 43.9192C164.331 43.0903 163.502 42.4417 162.493 41.9732C161.52 41.4687 160.475 41.2165 159.358 41.2165C158.277 41.2165 157.268 41.3606 156.331 41.6489C155.394 41.9372 154.583 42.4237 153.898 43.1084C153.214 43.793 152.673 44.712 152.277 45.8651C151.88 47.0183 151.682 48.4777 151.682 50.2435C151.682 52.1894 152.079 53.8471 152.871 55.2165C153.7 56.5498 154.745 57.5768 156.007 58.2975C157.304 58.9822 158.673 59.3246 160.115 59.3246C161.448 59.3246 162.511 59.2165 163.304 59.0002C164.097 58.784 164.727 58.5318 165.196 58.2435C165.7 57.9192 166.151 57.6489 166.547 57.4327C167.196 57.1084 167.808 56.9462 168.385 56.9462C169.178 56.9462 169.826 57.2165 170.331 57.757C170.871 58.2975 171.142 58.9282 171.142 59.6489C171.142 60.6219 170.637 61.5048 169.628 62.2975C168.691 63.0903 167.376 63.793 165.682 64.4057C163.989 64.9822 162.241 65.2705 160.439 65.2705ZM202.588 35.2705C203.525 35.2705 204.299 35.5768 204.912 36.1894C205.525 36.802 205.831 37.5948 205.831 38.5678V61.4327C205.831 62.3696 205.525 63.1624 204.912 63.8111C204.299 64.4237 203.525 64.73 202.588 64.73C201.651 64.73 200.876 64.4237 200.263 63.8111C199.651 63.1624 199.344 62.3696 199.344 61.4327V58.784L200.534 59.2705C200.534 59.739 200.281 60.3156 199.777 61.0002C199.272 61.6489 198.588 62.2975 197.723 62.9462C196.858 63.5948 195.831 64.1534 194.642 64.6219C193.489 65.0543 192.227 65.2705 190.858 65.2705C188.371 65.2705 186.119 64.6399 184.101 63.3786C182.083 62.0813 180.48 60.3156 179.29 58.0813C178.137 55.8111 177.561 53.2165 177.561 50.2975C177.561 47.3426 178.137 44.748 179.29 42.5138C180.48 40.2435 182.065 38.4777 184.047 37.2165C186.029 35.9192 188.227 35.2705 190.642 35.2705C192.191 35.2705 193.615 35.5048 194.912 35.9732C196.209 36.4417 197.326 37.0363 198.263 37.757C199.236 38.4777 199.975 39.2165 200.48 39.9732C201.02 40.6939 201.29 41.3066 201.29 41.8111L199.344 42.5138V38.5678C199.344 37.6309 199.651 36.8561 200.263 36.2435C200.876 35.5948 201.651 35.2705 202.588 35.2705ZM191.669 59.3246C193.254 59.3246 194.642 58.9282 195.831 58.1354C197.02 57.3426 197.939 56.2615 198.588 54.8921C199.272 53.5228 199.615 51.9912 199.615 50.2975C199.615 48.5678 199.272 47.0183 198.588 45.6489C197.939 44.2795 197.02 43.1984 195.831 42.4057C194.642 41.6129 193.254 41.2165 191.669 41.2165C190.119 41.2165 188.75 41.6129 187.561 42.4057C186.371 43.1984 185.434 44.2795 184.75 45.6489C184.101 47.0183 183.777 48.5678 183.777 50.2975C183.777 51.9912 184.101 53.5228 184.75 54.8921C185.434 56.2615 186.371 57.3426 187.561 58.1354C188.75 58.9282 190.119 59.3246 191.669 59.3246ZM219.881 61.4327C219.881 62.3696 219.557 63.1624 218.908 63.8111C218.296 64.4237 217.521 64.73 216.584 64.73C215.683 64.73 214.926 64.4237 214.314 63.8111C213.701 63.1624 213.395 62.3696 213.395 61.4327V28.0273C213.395 27.0903 213.701 26.3156 214.314 25.7029C214.962 25.0543 215.755 24.73 216.692 24.73C217.629 24.73 218.386 25.0543 218.962 25.7029C219.575 26.3156 219.881 27.0903 219.881 28.0273V61.4327ZM227.589 36.3516H240.4C241.265 36.3516 241.986 36.6399 242.562 37.2165C243.139 37.793 243.427 38.5138 243.427 39.3786C243.427 40.2075 243.139 40.9102 242.562 41.4867C241.986 42.0273 241.265 42.2975 240.4 42.2975H227.589C226.724 42.2975 226.004 42.0093 225.427 41.4327C224.851 40.8561 224.562 40.1354 224.562 39.2705C224.562 38.4417 224.851 37.757 225.427 37.2165C226.004 36.6399 226.724 36.3516 227.589 36.3516ZM233.373 29.5948C234.31 29.5948 235.067 29.9192 235.643 30.5678C236.256 31.1804 236.562 31.9552 236.562 32.8921V56.9462C236.562 57.4507 236.652 57.8651 236.833 58.1894C237.049 58.5138 237.319 58.748 237.643 58.8921C238.004 59.0363 238.382 59.1084 238.778 59.1084C239.211 59.1084 239.607 59.0363 239.968 58.8921C240.328 58.712 240.742 58.6219 241.211 58.6219C241.715 58.6219 242.166 58.8561 242.562 59.3246C242.995 59.793 243.211 60.4417 243.211 61.2705C243.211 62.2795 242.652 63.1084 241.535 63.757C240.454 64.4057 239.283 64.73 238.022 64.73C237.265 64.73 236.418 64.6759 235.481 64.5678C234.58 64.4237 233.715 64.1174 232.887 63.6489C232.094 63.1444 231.427 62.3876 230.887 61.3786C230.346 60.3696 230.076 58.9822 230.076 57.2165V32.8921C230.076 31.9552 230.382 31.1804 230.995 30.5678C231.643 29.9192 232.436 29.5948 233.373 29.5948ZM264.572 35.2705C267.167 35.2705 269.131 35.8291 270.464 36.9462C271.833 38.0633 272.77 39.5588 273.275 41.4327C273.779 43.2705 274.031 45.3246 274.031 47.5948V61.4327C274.031 62.3696 273.725 63.1624 273.113 63.8111C272.5 64.4237 271.725 64.73 270.788 64.73C269.851 64.73 269.077 64.4237 268.464 63.8111C267.851 63.1624 267.545 62.3696 267.545 61.4327V47.5948C267.545 46.4057 267.401 45.3426 267.113 44.4057C266.824 43.4327 266.302 42.6579 265.545 42.0813C264.788 41.5048 263.707 41.2165 262.302 41.2165C260.932 41.2165 259.761 41.5048 258.788 42.0813C257.815 42.6579 257.077 43.4327 256.572 44.4057C256.104 45.3426 255.869 46.4057 255.869 47.5948V61.4327C255.869 62.3696 255.563 63.1624 254.95 63.8111C254.338 64.4237 253.563 64.73 252.626 64.73C251.689 64.73 250.914 64.4237 250.302 63.8111C249.689 63.1624 249.383 62.3696 249.383 61.4327V28.0273C249.383 27.0903 249.689 26.3156 250.302 25.7029C250.914 25.0543 251.689 24.73 252.626 24.73C253.563 24.73 254.338 25.0543 254.95 25.7029C255.563 26.3156 255.869 27.0903 255.869 28.0273V41.4327L255.058 41.2705C255.383 40.6579 255.833 40.0093 256.41 39.3246C256.986 38.6038 257.689 37.9372 258.518 37.3246C259.347 36.712 260.266 36.2255 261.275 35.8651C262.284 35.4687 263.383 35.2705 264.572 35.2705ZM287.163 61.4327C287.163 62.3696 286.857 63.1624 286.244 63.8111C285.632 64.4237 284.857 64.73 283.92 64.73C282.983 64.73 282.208 64.4237 281.596 63.8111C280.983 63.1624 280.677 62.3696 280.677 61.4327V39.1084C280.677 38.1714 280.983 37.3966 281.596 36.784C282.208 36.1354 282.983 35.8111 283.92 35.8111C284.857 35.8111 285.632 36.1354 286.244 36.784C286.857 37.3966 287.163 38.1714 287.163 39.1084V61.4327ZM283.866 32.2975C282.641 32.2975 281.776 32.0993 281.271 31.7029C280.767 31.3066 280.515 30.6038 280.515 29.5948V28.5678C280.515 27.5228 280.785 26.8201 281.325 26.4597C281.902 26.0633 282.767 25.8651 283.92 25.8651C285.181 25.8651 286.064 26.0633 286.569 26.4597C287.073 26.8561 287.325 27.5588 287.325 28.5678V29.5948C287.325 30.6399 287.055 31.3606 286.515 31.757C285.974 32.1174 285.091 32.2975 283.866 32.2975ZM308.694 24.73C309.487 24.73 310.262 24.8381 311.019 25.0543C311.776 25.2705 312.406 25.6309 312.911 26.1354C313.415 26.6038 313.667 27.2345 313.667 28.0273C313.667 28.9282 313.397 29.6489 312.857 30.1894C312.352 30.6939 311.758 30.9462 311.073 30.9462C310.749 30.9462 310.262 30.8741 309.613 30.73C308.965 30.5498 308.334 30.4597 307.721 30.4597C306.821 30.4597 306.118 30.6579 305.613 31.0543C305.145 31.4507 304.821 31.9192 304.64 32.4597C304.46 32.9642 304.37 33.4147 304.37 33.8111V61.4327C304.37 62.3696 304.064 63.1624 303.451 63.8111C302.839 64.4237 302.064 64.73 301.127 64.73C300.19 64.73 299.415 64.4237 298.803 63.8111C298.19 63.1624 297.884 62.3696 297.884 61.4327V33.8651C297.884 31.3066 298.785 29.1444 300.586 27.3786C302.388 25.6129 305.091 24.73 308.694 24.73ZM309.289 36.3516C310.154 36.3516 310.875 36.6399 311.451 37.2165C312.028 37.757 312.316 38.4597 312.316 39.3246C312.316 40.1894 312.028 40.9102 311.451 41.4867C310.875 42.0273 310.154 42.2975 309.289 42.2975H294.965C294.1 42.2975 293.379 42.0273 292.803 41.4867C292.226 40.9102 291.938 40.1894 291.938 39.3246C291.938 38.4597 292.226 37.757 292.803 37.2165C293.379 36.6399 294.1 36.3516 294.965 36.3516H309.289ZM338.885 35.8111C339.822 35.8111 340.597 36.1354 341.209 36.784C341.822 37.3966 342.128 38.1714 342.128 39.1084V62.0813C342.128 65.3966 341.498 68.0273 340.236 69.9732C339.011 71.9552 337.353 73.3786 335.263 74.2435C333.173 75.1084 330.831 75.5408 328.236 75.5408C327.083 75.5408 325.858 75.4507 324.561 75.2705C323.263 75.0903 322.2 74.8201 321.371 74.4597C320.29 73.9912 319.534 73.3966 319.101 72.6759C318.705 71.9912 318.633 71.2525 318.885 70.4597C319.209 69.4147 319.732 68.6939 320.452 68.2975C321.173 67.9372 321.93 67.9012 322.723 68.1894C323.299 68.3696 324.056 68.6399 324.993 69.0003C325.93 69.3966 327.011 69.5948 328.236 69.5948C329.894 69.5948 331.263 69.3606 332.344 68.8921C333.462 68.4597 334.29 67.703 334.831 66.6219C335.407 65.5768 335.696 64.1354 335.696 62.2975V58.6759L336.831 59.9732C336.218 61.1624 335.443 62.1534 334.507 62.9462C333.606 63.703 332.525 64.2795 331.263 64.6759C330.002 65.0723 328.561 65.2705 326.939 65.2705C325.029 65.2705 323.353 64.8381 321.912 63.9732C320.507 63.0723 319.407 61.8471 318.615 60.2975C317.822 58.712 317.425 56.9102 317.425 54.8921V39.1084C317.425 38.1714 317.732 37.3966 318.344 36.784C318.957 36.1354 319.732 35.8111 320.669 35.8111C321.606 35.8111 322.38 36.1354 322.993 36.784C323.606 37.3966 323.912 38.1714 323.912 39.1084V52.9462C323.912 55.2885 324.416 56.9462 325.425 57.9192C326.471 58.8561 327.912 59.3246 329.75 59.3246C331.011 59.3246 332.074 59.0903 332.939 58.6219C333.804 58.1174 334.471 57.3966 334.939 56.4597C335.407 55.4867 335.642 54.3156 335.642 52.9462V39.1084C335.642 38.1714 335.948 37.3966 336.561 36.784C337.173 36.1354 337.948 35.8111 338.885 35.8111Z" fill="#2482C6"/>
</svg>
